<svg xmlns="http://www.w3.org/2000/svg" viewBox="0 0 512 512" width="512" height="512"><g transform="translate(16.00 16.00) scale(10.43478) translate(-9 -9)"><defs><mask id="m-a" maskUnits="userSpaceOnUse" x="0" y="0" width="64" height="64"><rect width="64" height="64" fill="#fff"/><g transform="translate(64 0) scale(-1 1) rotate(225 32 32)" fill="#000" stroke="#000" stroke-width="3.5" stroke-linejoin="round"><rect x="3" y="28.75" width="17.5" height="6.5" rx="3.25"/><path d="M19 27.5H37C49.5 27.5 57.5 31 61 35.4C58.5 36.6 55 37 50.5 37H19Z"/></g><g transform="rotate(225 32 32)" fill="#000"><circle cx="8.5" cy="32" r="1.25"/><circle cx="14" cy="32" r="1.25"/></g></mask><mask id="m-b" maskUnits="userSpaceOnUse" x="0" y="0" width="64" height="64"><rect width="64" height="64" fill="#fff"/><g transform="translate(64 0) scale(-1 1) rotate(225 32 32)" fill="#000"><circle cx="8.5" cy="32" r="1.25"/><circle cx="14" cy="32" r="1.25"/></g></mask></defs><g mask="url(#m-a)" fill="#1f1c19"><g transform="rotate(225 32 32)"><rect x="3" y="28.75" width="17.5" height="6.5" rx="3.25"/><path d="M19 27.5H37C49.5 27.5 57.5 31 61 35.4C58.5 36.6 55 37 50.5 37H19Z"/></g></g><g mask="url(#m-b)" fill="#d23c1b"><g transform="translate(64 0) scale(-1 1) rotate(225 32 32)"><rect x="3" y="28.75" width="17.5" height="6.5" rx="3.25"/><path d="M19 27.5H37C49.5 27.5 57.5 31 61 35.4C58.5 36.6 55 37 50.5 37H19Z"/></g></g></g></svg>
