<svg xmlns="http://www.w3.org/2000/svg" viewBox="0 0 64 64" width="256" height="256"><title>Lumoras · Signal Matrix</title><circle class="dot" style="--d:0.00s" cx="10" cy="10" r="1.50" fill="#0D1016"/><circle class="dot" style="--d:0.00s" cx="10" cy="20.5" r="2.60" fill="#0D1016"/><circle class="dot" style="--d:0.00s" cx="10" cy="31" r="4.70" fill="#0AA5D8"/><circle class="dot" style="--d:0.00s" cx="10" cy="41.5" r="2.60" fill="#0D1016"/><circle class="dot" style="--d:0.00s" cx="10" cy="52" r="1.50" fill="#0D1016"/><circle class="dot" style="--d:0.12s" cx="20.5" cy="10" r="1.50" fill="#0D1016"/><circle class="dot" style="--d:0.12s" cx="20.5" cy="20.5" r="1.50" fill="#0D1016"/><circle class="dot" style="--d:0.12s" cx="20.5" cy="31" r="2.10" fill="#0D1016"/><circle class="dot" style="--d:0.12s" cx="20.5" cy="41.5" r="4.20" fill="#0AA5D8"/><circle class="dot" style="--d:0.12s" cx="20.5" cy="52" r="3.10" fill="#0D1016"/><circle class="dot" style="--d:0.24s" cx="31" cy="10" r="1.50" fill="#0D1016"/><circle class="dot" style="--d:0.24s" cx="31" cy="20.5" r="2.60" fill="#0D1016"/><circle class="dot" style="--d:0.24s" cx="31" cy="31" r="4.70" fill="#0AA5D8"/><circle class="dot" style="--d:0.24s" cx="31" cy="41.5" r="2.60" fill="#0D1016"/><circle class="dot" style="--d:0.24s" cx="31" cy="52" r="1.50" fill="#0D1016"/><circle class="dot" style="--d:0.36s" cx="41.5" cy="10" r="3.10" fill="#0D1016"/><circle class="dot" style="--d:0.36s" cx="41.5" cy="20.5" r="4.20" fill="#0AA5D8"/><circle class="dot" style="--d:0.36s" cx="41.5" cy="31" r="2.10" fill="#0D1016"/><circle class="dot" style="--d:0.36s" cx="41.5" cy="41.5" r="1.50" fill="#0D1016"/><circle class="dot" style="--d:0.36s" cx="41.5" cy="52" r="1.50" fill="#0D1016"/><circle class="dot" style="--d:0.48s" cx="52" cy="10" r="1.50" fill="#0D1016"/><circle class="dot" style="--d:0.48s" cx="52" cy="20.5" r="2.60" fill="#0D1016"/><circle class="dot" style="--d:0.48s" cx="52" cy="31" r="4.70" fill="#0AA5D8"/><circle class="dot" style="--d:0.48s" cx="52" cy="41.5" r="2.60" fill="#0D1016"/><circle class="dot" style="--d:0.48s" cx="52" cy="52" r="1.50" fill="#0D1016"/></svg>
